<?xml version="1.0" encoding="UTF-8" standalone="no"?>
<!-- Generator: Adobe Illustrator 18.0.0, SVG Export Plug-In . SVG Version: 6.00 Build 0)  -->

<svg
   xmlns:dc="http://purl.org/dc/elements/1.1/"
   xmlns:cc="http://creativecommons.org/ns#"
   xmlns:rdf="http://www.w3.org/1999/02/22-rdf-syntax-ns#"
   xmlns:svg="http://www.w3.org/2000/svg"
   xmlns="http://www.w3.org/2000/svg"
   xmlns:sodipodi="http://sodipodi.sourceforge.net/DTD/sodipodi-0.dtd"
   xmlns:inkscape="http://www.inkscape.org/namespaces/inkscape"
   version="1.1"
   id="Capa_1"
   x="0px"
   y="0px"
   viewBox="0 0 778.22131 320"
   xml:space="preserve"
   sodipodi:docname="big-film-roll3.svg"
   inkscape:version="0.92.4 (5da689c313, 2019-01-14)"
   width="778.22131"
   height="320"><title
   id="title963">roll2</title><metadata
   id="metadata38"><rdf:RDF><cc:Work
       rdf:about=""><dc:format>image/svg+xml</dc:format><dc:type
         rdf:resource="http://purl.org/dc/dcmitype/StillImage" /><dc:title>roll2</dc:title></cc:Work></rdf:RDF></metadata><defs
   id="defs36" /><sodipodi:namedview
   pagecolor="#ffffff"
   bordercolor="#666666"
   borderopacity="1"
   objecttolerance="10"
   gridtolerance="10"
   guidetolerance="10"
   inkscape:pageopacity="0"
   inkscape:pageshadow="2"
   inkscape:window-width="1920"
   inkscape:window-height="1017"
   id="namedview34"
   showgrid="false"
   showborder="false"
   inkscape:zoom="0.64070369"
   inkscape:cx="-24.076972"
   inkscape:cy="120.97984"
   inkscape:window-x="-8"
   inkscape:window-y="-8"
   inkscape:window-maximized="1"
   inkscape:current-layer="g961"
   borderlayer="false"
   fit-margin-top="0"
   fit-margin-left="0"
   fit-margin-right="0"
   fit-margin-bottom="0" />

<g
   id="g3"
   transform="translate(51.621047,14.847598)">
</g>
<g
   id="g5"
   transform="translate(51.621047,14.847598)">
</g>
<g
   id="g7"
   transform="translate(51.621047,14.847598)">
</g>
<g
   id="g9"
   transform="translate(51.621047,14.847598)">
</g>
<g
   id="g11"
   transform="translate(51.621047,14.847598)">
</g>
<g
   id="g13"
   transform="translate(51.621047,14.847598)">
</g>
<g
   id="g15"
   transform="translate(51.621047,14.847598)">
</g>
<g
   id="g17"
   transform="translate(51.621047,14.847598)">
</g>
<g
   id="g19"
   transform="translate(51.621047,14.847598)">
</g>
<g
   id="g21"
   transform="translate(51.621047,14.847598)">
</g>
<g
   id="g23"
   transform="translate(51.621047,14.847598)">
</g>
<g
   id="g25"
   transform="translate(51.621047,14.847598)">
</g>
<g
   id="g27"
   transform="translate(51.621047,14.847598)">
</g>
<g
   id="g29"
   transform="translate(51.621047,14.847598)">
</g>
<g
   id="g31"
   transform="translate(51.621047,14.847598)">
</g>
<g
   id="g961"
   transform="translate(51.621047,14.847598)"><path
     inkscape:connector-curvature="0"
     style="fill:#666666;fill-opacity:0.98067633"
     d="m 273.38457,261.0894 c 30.638,-29.148 49.737,-70.311 49.737,-115.937 0,-88.366001 -71.636,-159.999998 -160,-159.999998 -88.366002,0 -160.0000022,71.633997 -160.0000022,159.999998 0,88.365 71.6340002,160 160.0000022,160 1.891,0 5.646,-10e-4 5.646,-10e-4 32.932,0 58.444,-3.813 85.306,-12.747 63.635,-21.163 103.644,-0.651 105.316,0.232 l 6.005,-11.197 6.071,-11.161 c -1.774,-0.966 -39.027,-20.651 -98.081,-9.189 z m -34.518,-207.487001 c 4.502,-2.597997 10.258,-1.056 12.856,3.445 l 32,55.426001 c 2.6,4.501 1.058,10.258 -3.444,12.857 -19.775,11.416 -45.152,4.617 -56.57,-15.158 -11.417,-19.776001 -4.616,-45.152001 15.158,-56.570001 z M 87.375568,236.7024 c -4.501,2.599 -10.258,1.056 -12.857,-3.445 l -32,-55.426 c -2.598,-4.501 -1.056,-10.257 3.445,-12.856 19.775,-11.418 45.152,-4.617 56.569002,15.157 11.418,19.776 4.618,45.153 -15.157002,56.57 z m 15.157002,-126.53 c -11.417002,19.775 -36.794002,26.574 -56.569002,15.158 -4.501,-2.6 -6.043,-8.356 -3.445,-12.857 l 32,-55.426001 c 2.6,-4.501 8.356,-6.042997 12.857,-3.445 19.775002,11.418 26.575002,36.794 15.157002,56.570001 z m 92.589,155.765 h -64 c -5.199,0 -9.412,-4.214 -9.412,-9.412 0,-22.834 18.576,-41.411 41.412,-41.412 22.834,0 41.411,18.578 41.411,41.412 0,5.198 -4.214,9.412 -9.411,9.412 z m -62.165,-120.785 c 0,-16.66 13.506,-30.164 30.165,-30.164 16.659,0 30.163,13.504 30.163,30.164 0,16.658 -13.504,30.164 -30.163,30.164 -16.659,0 -30.165,-13.505 -30.165,-30.164 z m 30.165,-69.961001 c -22.835,0 -41.412,-18.578 -41.412,-41.411997 0,-5.197 4.213,-9.412 9.412,-9.412 h 64 c 5.197,0 9.411,4.215 9.411,9.412 0,22.833997 -18.577,41.411997 -41.411,41.411997 z m 88.602,158.066001 c -2.599,4.501 -8.355,6.044 -12.856,3.445 -19.775,-11.417 -26.575,-36.794 -15.158,-56.57 11.417,-19.774 36.795,-26.575 56.57,-15.157 4.502,2.6 6.044,8.355 3.444,12.856 z"
     id="_x30_1-Film_roll" /><g
     transform="matrix(1.2770337,0,0,1.2172678,-53.467135,48.951231)"
     id="g135"><g
       aria-label="GOLD"
       transform="matrix(3.256655,0,0,3.256655,-38.842778,-219.48742)"
       style="font-style:normal;font-weight:normal;font-size:40px;line-height:1.25;font-family:sans-serif;letter-spacing:0px;word-spacing:0px;fill:#784421;fill-opacity:1;stroke:none"
       id="flowRoot40"><path
         d="m 37.117187,101.73149 q -4.101562,2.36329 -10.195312,2.36329 -6.757813,0 -10.664063,-3.73047 -3.886718,-3.750004 -3.886718,-10.312504 0,-6.601562 4.257812,-10.761718 4.257813,-4.160157 11.328125,-4.160157 4.453125,0 7.851563,1.230469 v 5.917969 q -3.242188,-1.875 -7.929688,-1.875 -3.925781,0 -6.40625,2.558594 -2.460937,2.539062 -2.460937,6.796875 0,4.316406 2.207031,6.679687 2.226562,2.363281 5.996094,2.363281 2.265625,0 3.59375,-0.644531 v -5.46875 h -5.605469 v -5.039062 h 11.914062 z"
         style="font-style:normal;font-variant:normal;font-weight:bold;font-stretch:normal;font-size:40px;font-family:Gadugi;-inkscape-font-specification:'Gadugi, Bold';font-variant-ligatures:normal;font-variant-caps:normal;font-variant-numeric:normal;font-feature-settings:normal;text-align:start;writing-mode:lr-tb;text-anchor:start;fill:#784421"
         id="path965" /><path
         d="m 54.402344,104.09478 q -6.015625,0 -9.804688,-3.90625 -3.789062,-3.925786 -3.789062,-10.214849 0,-6.640625 3.847656,-10.742187 3.847656,-4.101563 10.195312,-4.101563 5.996094,0 9.6875,3.925782 Q 68.25,82.981494 68.25,89.407275 q 0,6.601563 -3.847656,10.644535 -3.828125,4.04297 -10,4.04297 z m 0.273437,-23.535161 q -3.320312,0 -5.273437,2.5 -1.953125,2.480469 -1.953125,6.582031 0,4.160156 1.953125,6.582031 1.953125,2.421875 5.117187,2.421875 3.261719,0 5.175781,-2.34375 1.914063,-2.363281 1.914063,-6.542968 0,-4.355469 -1.855469,-6.777344 -1.855469,-2.421875 -5.078125,-2.421875 z"
         style="font-style:normal;font-variant:normal;font-weight:bold;font-stretch:normal;font-size:40px;font-family:Gadugi;-inkscape-font-specification:'Gadugi, Bold';font-variant-ligatures:normal;font-variant-caps:normal;font-variant-numeric:normal;font-feature-settings:normal;text-align:start;writing-mode:lr-tb;text-anchor:start;fill:#784421"
         id="path967" /><path
         d="M 89.558594,103.60649 H 72.878906 V 75.598681 H 79.1875 v 22.890625 h 10.371094 z"
         style="font-style:normal;font-variant:normal;font-weight:bold;font-stretch:normal;font-size:40px;font-family:Gadugi;-inkscape-font-specification:'Gadugi, Bold';font-variant-ligatures:normal;font-variant-caps:normal;font-variant-numeric:normal;font-feature-settings:normal;text-align:start;writing-mode:lr-tb;text-anchor:start;fill:#784421"
         id="path969" /><path
         d="M 93.347656,103.60649 V 75.598681 h 9.921874 q 14.92188,0 14.92188,13.652344 0,6.542969 -4.08203,10.449219 -4.0625,3.906246 -10.83985,3.906246 z M 99.65625,80.7354 v 17.753906 h 3.125 q 4.10156,0 6.42578,-2.460937 2.34375,-2.460938 2.34375,-6.699219 0,-4.003906 -2.32422,-6.289062 -2.30468,-2.304688 -6.48437,-2.304688 z"
         style="font-style:normal;font-variant:normal;font-weight:bold;font-stretch:normal;font-size:40px;font-family:Gadugi;-inkscape-font-specification:'Gadugi, Bold';font-variant-ligatures:normal;font-variant-caps:normal;font-variant-numeric:normal;font-feature-settings:normal;text-align:start;writing-mode:lr-tb;text-anchor:start;fill:#784421"
         id="path971" /></g><g
       aria-label="GOLD"
       transform="matrix(3.256655,0,0,3.256655,-34.160426,-225.73056)"
       style="font-style:normal;font-weight:normal;font-size:40px;line-height:1.25;font-family:sans-serif;letter-spacing:0px;word-spacing:0px;fill:#d4aa00;fill-opacity:1;stroke:none"
       id="flowRoot58"><path
         d="m 37.117187,101.73149 q -4.101562,2.36329 -10.195312,2.36329 -6.757813,0 -10.664063,-3.73047 -3.886718,-3.750004 -3.886718,-10.312504 0,-6.601562 4.257812,-10.761718 4.257813,-4.160157 11.328125,-4.160157 4.453125,0 7.851563,1.230469 v 5.917969 q -3.242188,-1.875 -7.929688,-1.875 -3.925781,0 -6.40625,2.558594 -2.460937,2.539062 -2.460937,6.796875 0,4.316406 2.207031,6.679687 2.226562,2.363281 5.996094,2.363281 2.265625,0 3.59375,-0.644531 v -5.46875 h -5.605469 v -5.039062 h 11.914062 z"
         style="font-style:normal;font-variant:normal;font-weight:bold;font-stretch:normal;font-size:40px;font-family:Gadugi;-inkscape-font-specification:'Gadugi, Bold';font-variant-ligatures:normal;font-variant-caps:normal;font-variant-numeric:normal;font-feature-settings:normal;text-align:start;writing-mode:lr-tb;text-anchor:start;fill:#d4aa00"
         id="path974" /><path
         d="m 54.402344,104.09478 q -6.015625,0 -9.804688,-3.90625 -3.789062,-3.925786 -3.789062,-10.214849 0,-6.640625 3.847656,-10.742187 3.847656,-4.101563 10.195312,-4.101563 5.996094,0 9.6875,3.925782 Q 68.25,82.981494 68.25,89.407275 q 0,6.601563 -3.847656,10.644535 -3.828125,4.04297 -10,4.04297 z m 0.273437,-23.535161 q -3.320312,0 -5.273437,2.5 -1.953125,2.480469 -1.953125,6.582031 0,4.160156 1.953125,6.582031 1.953125,2.421875 5.117187,2.421875 3.261719,0 5.175781,-2.34375 1.914063,-2.363281 1.914063,-6.542968 0,-4.355469 -1.855469,-6.777344 -1.855469,-2.421875 -5.078125,-2.421875 z"
         style="font-style:normal;font-variant:normal;font-weight:bold;font-stretch:normal;font-size:40px;font-family:Gadugi;-inkscape-font-specification:'Gadugi, Bold';font-variant-ligatures:normal;font-variant-caps:normal;font-variant-numeric:normal;font-feature-settings:normal;text-align:start;writing-mode:lr-tb;text-anchor:start;fill:#d4aa00"
         id="path976" /><path
         d="M 89.558594,103.60649 H 72.878906 V 75.598681 H 79.1875 v 22.890625 h 10.371094 z"
         style="font-style:normal;font-variant:normal;font-weight:bold;font-stretch:normal;font-size:40px;font-family:Gadugi;-inkscape-font-specification:'Gadugi, Bold';font-variant-ligatures:normal;font-variant-caps:normal;font-variant-numeric:normal;font-feature-settings:normal;text-align:start;writing-mode:lr-tb;text-anchor:start;fill:#d4aa00"
         id="path978" /><path
         d="M 93.347656,103.60649 V 75.598681 h 9.921874 q 14.92188,0 14.92188,13.652344 0,6.542969 -4.08203,10.449219 -4.0625,3.906246 -10.83985,3.906246 z M 99.65625,80.7354 v 17.753906 h 3.125 q 4.10156,0 6.42578,-2.460937 2.34375,-2.460938 2.34375,-6.699219 0,-4.003906 -2.32422,-6.289062 -2.30468,-2.304688 -6.48437,-2.304688 z"
         style="font-style:normal;font-variant:normal;font-weight:bold;font-stretch:normal;font-size:40px;font-family:Gadugi;-inkscape-font-specification:'Gadugi, Bold';font-variant-ligatures:normal;font-variant-caps:normal;font-variant-numeric:normal;font-feature-settings:normal;text-align:start;writing-mode:lr-tb;text-anchor:start;fill:#d4aa00"
         id="path980" /></g></g><g
     transform="translate(124.86271,62.431356)"
     id="g125"><g
       aria-label="CINEMA"
       transform="matrix(3.256655,0,0,3.256655,206.2003,-110.23255)"
       style="font-style:normal;font-weight:normal;font-size:40px;line-height:1.25;font-family:sans-serif;letter-spacing:0px;word-spacing:0px;fill:#a05a2c;fill-opacity:1;stroke:none"
       id="flowRoot87"><path
         d="m 27.12978,102.9132 q -2.134252,1.03314 -5.573523,1.03314 -4.486006,0 -7.055265,-2.63723 -2.569258,-2.637223 -2.569258,-7.028072 0,-4.676322 2.881919,-7.585429 2.895514,-2.909107 7.503866,-2.909107 2.854731,0 4.812261,0.72048 v 4.227721 q -1.95753,-1.16908 -4.458818,-1.16908 -2.74598,0 -4.431631,1.726432 -1.685651,1.726433 -1.685651,4.676322 0,2.827544 1.590493,4.513194 1.590493,1.672059 4.282097,1.672059 2.569258,0 4.70351,-1.250646 z"
         style="font-style:normal;font-variant:normal;font-weight:bold;font-stretch:normal;font-size:27.8404274px;font-family:Gadugi;-inkscape-font-specification:'Gadugi, Bold';font-variant-ligatures:normal;font-variant-caps:normal;font-variant-numeric:normal;font-feature-settings:normal;text-align:start;writing-mode:lr-tb;text-anchor:start;fill:#a05a2c"
         id="path983" /><path
         d="m 36.577581,84.112757 v 3.39849 H 34.946306 V 100.208 h 1.631275 v 3.39849 H 28.924182 V 100.208 h 1.631275 V 87.511247 h -1.631275 v -3.39849 z"
         style="font-style:normal;font-variant:normal;font-weight:bold;font-stretch:normal;font-size:27.8404274px;font-family:Gadugi;-inkscape-font-specification:'Gadugi, Bold';font-variant-ligatures:normal;font-variant-caps:normal;font-variant-numeric:normal;font-feature-settings:normal;text-align:start;writing-mode:lr-tb;text-anchor:start;fill:#a05a2c"
         id="path985" /><path
         d="m 56.900549,103.60649 h -4.43163 l -8.03403,-12.248153 q -0.706886,-1.073923 -0.978765,-1.617681 h -0.05438 Q 43.5105,90.773797 43.5105,92.894454 V 103.60649 H 39.364343 V 84.112757 h 4.730697 l 7.734963,11.867526 q 0.530164,0.802044 0.978765,1.590493 h 0.05438 q -0.108752,-0.679698 -0.108752,-2.67801 V 84.112757 h 4.146157 z"
         style="font-style:normal;font-variant:normal;font-weight:bold;font-stretch:normal;font-size:27.8404274px;font-family:Gadugi;-inkscape-font-specification:'Gadugi, Bold';font-variant-ligatures:normal;font-variant-caps:normal;font-variant-numeric:normal;font-feature-settings:normal;text-align:start;writing-mode:lr-tb;text-anchor:start;fill:#a05a2c"
         id="path987" /><path
         d="M 73.07736,103.60649 H 61.386556 V 84.112757 H 72.62876 v 3.575211 h -6.851356 v 4.336473 h 6.375567 v 3.561617 h -6.375567 v 4.458822 h 7.299956 z"
         style="font-style:normal;font-variant:normal;font-weight:bold;font-stretch:normal;font-size:27.8404274px;font-family:Gadugi;-inkscape-font-specification:'Gadugi, Bold';font-variant-ligatures:normal;font-variant-caps:normal;font-variant-numeric:normal;font-feature-settings:normal;text-align:start;writing-mode:lr-tb;text-anchor:start;fill:#a05a2c"
         id="path989" /><path
         d="M 98.443685,103.60649 H 94.107212 V 91.942877 q 0,-1.88956 0.163128,-4.173345 h -0.108752 q -0.339849,1.794403 -0.611728,2.582852 L 88.98229,103.60649 H 85.393485 L 80.744351,90.488324 q -0.190316,-0.530165 -0.611728,-2.718792 h -0.122346 q 0.176721,2.881919 0.176721,5.056953 V 103.60649 H 76.231156 V 84.112757 h 6.429943 l 3.98303,11.554865 q 0.475788,1.386584 0.693292,2.786762 h 0.08156 q 0.367037,-1.617682 0.774856,-2.81395 l 3.98303,-11.527677 h 6.266815 z"
         style="font-style:normal;font-variant:normal;font-weight:bold;font-stretch:normal;font-size:27.8404274px;font-family:Gadugi;-inkscape-font-specification:'Gadugi, Bold';font-variant-ligatures:normal;font-variant-caps:normal;font-variant-numeric:normal;font-feature-settings:normal;text-align:start;writing-mode:lr-tb;text-anchor:start;fill:#a05a2c"
         id="path991" /><path
         d="m 120.0173,103.60649 h -4.78508 l -1.38658,-4.336469 h -6.93292 l -1.37299,4.336469 h -4.75789 l 7.09605,-19.493733 h 5.20649 z m -7.17761,-7.707771 -2.09347,-6.552288 q -0.2311,-0.734074 -0.32626,-1.75362 h -0.10875 q -0.068,0.856419 -0.33985,1.699244 l -2.12066,6.606664 z"
         style="font-style:normal;font-variant:normal;font-weight:bold;font-stretch:normal;font-size:27.8404274px;font-family:Gadugi;-inkscape-font-specification:'Gadugi, Bold';font-variant-ligatures:normal;font-variant-caps:normal;font-variant-numeric:normal;font-feature-settings:normal;text-align:start;writing-mode:lr-tb;text-anchor:start;fill:#a05a2c"
         id="path993" /></g><g
       aria-label="CINEMA"
       transform="matrix(3.256655,0,0,3.256655,210.88265,-114.9149)"
       style="font-style:normal;font-weight:normal;font-size:40px;line-height:1.25;font-family:sans-serif;letter-spacing:0px;word-spacing:0px;fill:#d4aa00;fill-opacity:1;stroke:none"
       id="flowRoot79"><path
         d="m 27.12978,102.9132 q -2.134252,1.03314 -5.573523,1.03314 -4.486006,0 -7.055265,-2.63723 -2.569258,-2.637223 -2.569258,-7.028072 0,-4.676322 2.881919,-7.585429 2.895514,-2.909107 7.503866,-2.909107 2.854731,0 4.812261,0.72048 v 4.227721 q -1.95753,-1.16908 -4.458818,-1.16908 -2.74598,0 -4.431631,1.726432 -1.685651,1.726433 -1.685651,4.676322 0,2.827544 1.590493,4.513194 1.590493,1.672059 4.282097,1.672059 2.569258,0 4.70351,-1.250646 z"
         style="font-style:normal;font-variant:normal;font-weight:bold;font-stretch:normal;font-size:27.8404274px;font-family:Gadugi;-inkscape-font-specification:'Gadugi, Bold';font-variant-ligatures:normal;font-variant-caps:normal;font-variant-numeric:normal;font-feature-settings:normal;text-align:start;writing-mode:lr-tb;text-anchor:start;fill:#d4aa00"
         id="path996" /><path
         d="m 36.577581,84.112757 v 3.39849 H 34.946306 V 100.208 h 1.631275 v 3.39849 H 28.924182 V 100.208 h 1.631275 V 87.511247 h -1.631275 v -3.39849 z"
         style="font-style:normal;font-variant:normal;font-weight:bold;font-stretch:normal;font-size:27.8404274px;font-family:Gadugi;-inkscape-font-specification:'Gadugi, Bold';font-variant-ligatures:normal;font-variant-caps:normal;font-variant-numeric:normal;font-feature-settings:normal;text-align:start;writing-mode:lr-tb;text-anchor:start;fill:#d4aa00"
         id="path998" /><path
         d="m 56.900549,103.60649 h -4.43163 l -8.03403,-12.248153 q -0.706886,-1.073923 -0.978765,-1.617681 h -0.05438 Q 43.5105,90.773797 43.5105,92.894454 V 103.60649 H 39.364343 V 84.112757 h 4.730697 l 7.734963,11.867526 q 0.530164,0.802044 0.978765,1.590493 h 0.05438 q -0.108752,-0.679698 -0.108752,-2.67801 V 84.112757 h 4.146157 z"
         style="font-style:normal;font-variant:normal;font-weight:bold;font-stretch:normal;font-size:27.8404274px;font-family:Gadugi;-inkscape-font-specification:'Gadugi, Bold';font-variant-ligatures:normal;font-variant-caps:normal;font-variant-numeric:normal;font-feature-settings:normal;text-align:start;writing-mode:lr-tb;text-anchor:start;fill:#d4aa00"
         id="path1000" /><path
         d="M 73.07736,103.60649 H 61.386556 V 84.112757 H 72.62876 v 3.575211 h -6.851356 v 4.336473 h 6.375567 v 3.561617 h -6.375567 v 4.458822 h 7.299956 z"
         style="font-style:normal;font-variant:normal;font-weight:bold;font-stretch:normal;font-size:27.8404274px;font-family:Gadugi;-inkscape-font-specification:'Gadugi, Bold';font-variant-ligatures:normal;font-variant-caps:normal;font-variant-numeric:normal;font-feature-settings:normal;text-align:start;writing-mode:lr-tb;text-anchor:start;fill:#d4aa00"
         id="path1002" /><path
         d="M 98.443685,103.60649 H 94.107212 V 91.942877 q 0,-1.88956 0.163128,-4.173345 h -0.108752 q -0.339849,1.794403 -0.611728,2.582852 L 88.98229,103.60649 H 85.393485 L 80.744351,90.488324 q -0.190316,-0.530165 -0.611728,-2.718792 h -0.122346 q 0.176721,2.881919 0.176721,5.056953 V 103.60649 H 76.231156 V 84.112757 h 6.429943 l 3.98303,11.554865 q 0.475788,1.386584 0.693292,2.786762 h 0.08156 q 0.367037,-1.617682 0.774856,-2.81395 l 3.98303,-11.527677 h 6.266815 z"
         style="font-style:normal;font-variant:normal;font-weight:bold;font-stretch:normal;font-size:27.8404274px;font-family:Gadugi;-inkscape-font-specification:'Gadugi, Bold';font-variant-ligatures:normal;font-variant-caps:normal;font-variant-numeric:normal;font-feature-settings:normal;text-align:start;writing-mode:lr-tb;text-anchor:start;fill:#d4aa00"
         id="path1004" /><path
         d="m 120.0173,103.60649 h -4.78508 l -1.38658,-4.336469 h -6.93292 l -1.37299,4.336469 h -4.75789 l 7.09605,-19.493733 h 5.20649 z m -7.17761,-7.707771 -2.09347,-6.552288 q -0.2311,-0.734074 -0.32626,-1.75362 h -0.10875 q -0.068,0.856419 -0.33985,1.699244 l -2.12066,6.606664 z"
         style="font-style:normal;font-variant:normal;font-weight:bold;font-stretch:normal;font-size:27.8404274px;font-family:Gadugi;-inkscape-font-specification:'Gadugi, Bold';font-variant-ligatures:normal;font-variant-caps:normal;font-variant-numeric:normal;font-feature-settings:normal;text-align:start;writing-mode:lr-tb;text-anchor:start;fill:#d4aa00"
         id="path1006" /></g></g></g></svg>